<?xml version="1.0" standalone="no"?><!DOCTYPE svg PUBLIC "-//W3C//DTD SVG 1.1//EN" "http://www.w3.org/Graphics/SVG/1.1/DTD/svg11.dtd"><svg t="1596788182807" class="icon" viewBox="0 0 1024 1024" version="1.1" xmlns="http://www.w3.org/2000/svg" p-id="1759" width="22" height="22" xmlns:xlink="http://www.w3.org/1999/xlink"><defs><style type="text/css"></style></defs><path d="M192 96.256h671.744v61.44H192zM531.456 207.872c-89.6 0-156.672 28.672-207.872 83.456s-76.8 147.456-76.8 275.456 25.6 220.672 76.8 278.528c51.2 57.344 121.344 82.944 207.872 82.944s156.672-28.672 204.8-82.944c48.128-57.344 73.728-147.456 73.728-278.528 0-128-25.6-220.672-73.728-275.456s-118.784-83.456-204.8-83.456zM643.072 793.6c-31.744 38.4-67.072 54.272-112.128 54.272s-82.944-19.456-115.2-54.272c-31.744-38.4-48.128-112.128-48.128-227.328s15.872-188.928 48.128-227.328c31.744-35.328 70.656-51.2 115.2-51.2s79.872 19.456 112.128 54.272 45.056 112.128 45.056 227.328-16.384 188.928-45.056 224.256z" p-id="1760" fill="#2c2c2c"></path></svg>