<?xml version="1.0" standalone="no"?><!DOCTYPE svg PUBLIC "-//W3C//DTD SVG 1.1//EN" "http://www.w3.org/Graphics/SVG/1.1/DTD/svg11.dtd"><svg t="1596788619999" class="icon" viewBox="0 0 1024 1024" version="1.1" xmlns="http://www.w3.org/2000/svg" p-id="2481" width="22" height="22" xmlns:xlink="http://www.w3.org/1999/xlink"><defs><style type="text/css"></style></defs><path d="M611.648 217.856a44.8 44.8 0 0 1 5.504 63.104L423.232 512l193.92 231.04a44.8 44.8 0 0 1-68.608 57.6L364.736 581.632 181.12 800.64a44.8 44.8 0 0 1-68.608-57.6L306.24 512 112.448 280.96a44.8 44.8 0 0 1 68.608-57.6L364.8 442.24l183.808-218.88a44.8 44.8 0 0 1 63.104-5.504z m182.848-138.624c25.536 0 47.232 4.032 65.28 12.032 11.648 5.312 21.888 12.672 30.72 22.016 8.832 9.28 15.744 20.096 20.608 32.32a106.688 106.688 0 0 1-8 94.528c-10.24 16.896-20.672 30.144-31.36 39.744l-25.344 21.76-28.288 23.36a476.032 476.032 0 0 0-47.104 42.624l-4.48 5.12c-2.688 3.008-5.376 6.4-8.128 10.24l-4.16 6.016h130.56c12.928 0 22.848 2.688 29.696 8 6.848 5.312 10.24 12.608 10.24 21.76a28.928 28.928 0 0 1-8.128 20.736 28.992 28.992 0 0 1-18.368 8.192L891.968 448h-183.936c-12.544 0-22.272-3.456-29.312-10.368a33.152 33.152 0 0 1-10.496-24.384 62.08 62.08 0 0 1 6.784-23.872c4.48-9.92 9.408-17.728 14.72-23.36l25.6-26.048c12.224-12.16 23.68-23.232 34.432-33.088l20.096-17.984c3.84-3.328 7.296-6.208 10.304-8.576l7.872-5.76c13.632-9.728 24.96-19.456 34.112-29.184 9.088-9.728 16-19.776 20.736-30.016 4.736-10.24 7.104-20.288 7.104-30.08a52.864 52.864 0 0 0-28.352-48.256 59.904 59.904 0 0 0-28.608-7.04c-21.888 0-39.04 9.6-51.52 28.8l-2.56 5.056a255.936 255.936 0 0 0-5.76 15.36c-3.968 11.2-8.384 19.84-13.312 25.792-4.928 6.016-12.16 8.96-21.632 8.96a28.16 28.16 0 0 1-20.736-8.192 30.4 30.4 0 0 1-8.256-22.528c0-11.52 2.56-23.488 7.744-35.968 5.12-12.544 12.864-23.872 23.104-33.984 10.24-10.24 23.296-18.432 39.04-24.64 15.744-6.272 34.176-9.408 55.36-9.408z" fill="#2c2c2c" p-id="2482"></path></svg>