<?xml version="1.0" standalone="no"?><!DOCTYPE svg PUBLIC "-//W3C//DTD SVG 1.1//EN" "http://www.w3.org/Graphics/SVG/1.1/DTD/svg11.dtd"><svg t="1596788759785" class="icon" viewBox="0 0 1024 1024" version="1.1" xmlns="http://www.w3.org/2000/svg" p-id="3892" width="19" height="19" xmlns:xlink="http://www.w3.org/1999/xlink"><defs><style type="text/css"></style></defs><path d="M431.776 546.42l231.224-275.564c17.04-20.308 14.392-50.584-5.916-67.624-20.308-17.04-50.584-14.392-67.624 5.916L369.12 471.744l-220.344-262.6c-17.04-20.304-47.32-22.952-67.624-5.912-20.308 17.04-22.96 47.316-5.92 67.624l231.228 275.56-231.224 275.568c-17.04 20.304-14.392 50.584 5.916 67.624 20.308 17.04 50.584 14.392 67.624-5.92l220.344-262.592 220.344 262.596c17.04 20.308 47.32 22.956 67.624 5.916 20.308-17.04 22.96-47.32 5.92-67.624l-231.228-275.564z m288.416 278.14c9.832-23.36 33.032-48.096 69.608-74.2 31.744-22.72 52.288-38.992 61.632-48.82 14.34-15.308 21.512-32.064 21.512-50.272 0-14.824-4.112-27.148-12.328-36.98-8.216-9.828-19.98-14.74-35.288-14.74-20.944 0-35.204 7.812-42.78 23.44-4.348 9.024-6.928 23.364-7.732 43.024h-66.948c1.128-29.808 6.524-53.896 16.192-72.268 18.368-34.964 51-52.448 97.888-52.448 37.056 0 66.544 10.276 88.456 30.816 21.912 20.548 32.872 47.736 32.872 81.572 0 25.944-7.736 48.984-23.2 69.124-10.156 13.376-26.832 28.28-50.032 44.716l-27.556 19.576c-17.24 12.244-29.04 21.104-35.408 26.584a77.9 77.9 0 0 0-16.072 19.096H944v60.664h-240c0.644-25.136 6.04-48.096 16.192-68.88z" p-id="3893" fill="#2c2c2c"></path></svg>