<?xml version="1.0" standalone="no"?><!DOCTYPE svg PUBLIC "-//W3C//DTD SVG 1.1//EN" "http://www.w3.org/Graphics/SVG/1.1/DTD/svg11.dtd"><svg t="1596786219201" class="icon" viewBox="0 0 1024 1024" version="1.1" xmlns="http://www.w3.org/2000/svg" p-id="2178" width="16" height="16" xmlns:xlink="http://www.w3.org/1999/xlink"><defs><style type="text/css"></style></defs><path d="M687.168 830.08c-26.624 30.464-68.8 46.144-126.4 47.104h-266.24V569.6h266.24c57.6 0.896 99.712 16.128 126.4 45.632 26.624 30.016 40 66.048 40 108.16 0 41.216-13.312 76.8-40 106.752z m-392.64-691.712h251.52c56.576 0.96 98.304 14.72 124.928 41.472 27.2 28.544 40.768 63.424 40.768 104.64s-13.568 75.392-40.768 102.528c-26.624 29.44-68.352 44.288-124.992 44.288H294.528V138.24z m547.84 446.72c-28.544-44.032-70.72-73.28-126.4-87.808v-2.816c29.504-14.016 54.336-29.696 74.432-47.04 20.16-16.384 35.584-33.728 46.336-51.968 21.12-38.4 31.168-78.656 30.208-120.832 0-82.368-25.536-148.672-76.544-198.784C739.84 26.24 664.192 0.896 563.52 0H128v1024h469.952c80.576 0 147.712-26.88 201.6-80.768 54.336-51.52 81.92-121.472 82.88-209.92 0-53.44-13.376-102.848-40.064-148.224z" p-id="2179" fill="#2c2c2c"></path></svg>